<mxfile host="65bd71144e">
    <diagram id="lTbygE6mmEBvN5XrSG2k" name="Страница 1">
        <mxGraphModel dx="839" dy="795" grid="1" gridSize="10" guides="1" tooltips="1" connect="1" arrows="1" fold="1" page="1" pageScale="1" pageWidth="827" pageHeight="1169" math="0" shadow="0">
            <root>
                <mxCell id="0"/>
                <mxCell id="1" parent="0"/>
                <mxCell id="3" value="" style="shape=umlLifeline;participant=umlActor;perimeter=lifelinePerimeter;whiteSpace=wrap;html=1;container=1;collapsible=0;recursiveResize=0;verticalAlign=top;spacingTop=36;outlineConnect=0;" parent="1" vertex="1">
                    <mxGeometry x="50" y="80" width="20" height="510" as="geometry"/>
                </mxCell>
                <mxCell id="5" value="" style="html=1;points=[];perimeter=orthogonalPerimeter;" parent="3" vertex="1">
                    <mxGeometry x="5" y="80" width="10" height="410" as="geometry"/>
                </mxCell>
                <mxCell id="23" value="Запрос Арины&lt;br&gt;на предложения" style="html=1;verticalAlign=bottom;endArrow=block;entryX=-0.064;entryY=-0.003;entryDx=0;entryDy=0;entryPerimeter=0;" parent="1" target="31" edge="1">
                    <mxGeometry relative="1" as="geometry">
                        <mxPoint x="65" y="160" as="sourcePoint"/>
                        <mxPoint x="195" y="160.0000000000001" as="targetPoint"/>
                    </mxGeometry>
                </mxCell>
                <mxCell id="27" value="External API Gateway" style="shape=umlLifeline;perimeter=lifelinePerimeter;whiteSpace=wrap;html=1;container=1;collapsible=0;recursiveResize=0;outlineConnect=0;" parent="1" vertex="1">
                    <mxGeometry x="150" y="80" width="100" height="510" as="geometry"/>
                </mxCell>
                <mxCell id="31" value="" style="html=1;points=[];perimeter=orthogonalPerimeter;" parent="27" vertex="1">
                    <mxGeometry x="45" y="80" width="10" height="410" as="geometry"/>
                </mxCell>
                <mxCell id="28" value="Mobile BFF" style="shape=umlLifeline;perimeter=lifelinePerimeter;whiteSpace=wrap;html=1;container=1;collapsible=0;recursiveResize=0;outlineConnect=0;" parent="1" vertex="1">
                    <mxGeometry x="260" y="80" width="100" height="510" as="geometry"/>
                </mxCell>
                <mxCell id="32" value="" style="html=1;points=[];perimeter=orthogonalPerimeter;" parent="28" vertex="1">
                    <mxGeometry x="45" y="100" width="10" height="390" as="geometry"/>
                </mxCell>
                <mxCell id="61" value="" style="html=1;points=[];perimeter=orthogonalPerimeter;" vertex="1" parent="28">
                    <mxGeometry x="50" y="439" width="10" height="40" as="geometry"/>
                </mxCell>
                <mxCell id="62" value="Подготовка&lt;br&gt;данных&lt;br&gt;для фронта" style="edgeStyle=orthogonalEdgeStyle;html=1;align=left;spacingLeft=2;endArrow=block;rounded=0;entryX=1;entryY=0;" edge="1" target="61" parent="28">
                    <mxGeometry relative="1" as="geometry">
                        <mxPoint x="55" y="419" as="sourcePoint"/>
                        <Array as="points">
                            <mxPoint x="85" y="419"/>
                        </Array>
                    </mxGeometry>
                </mxCell>
                <mxCell id="63" value="Данные&lt;br&gt;предложений" style="html=1;verticalAlign=bottom;endArrow=open;dashed=1;endSize=8;exitX=-0.033;exitY=0.999;exitDx=0;exitDy=0;exitPerimeter=0;" edge="1" parent="28" source="38">
                    <mxGeometry relative="1" as="geometry">
                        <mxPoint x="55" y="390" as="targetPoint"/>
                        <mxPoint x="159.46000000000004" y="390" as="sourcePoint"/>
                    </mxGeometry>
                </mxCell>
                <mxCell id="29" value="Catalog AI Searcher" style="shape=umlLifeline;perimeter=lifelinePerimeter;whiteSpace=wrap;html=1;container=1;collapsible=0;recursiveResize=0;outlineConnect=0;" parent="1" vertex="1">
                    <mxGeometry x="620" y="80" width="100" height="510" as="geometry"/>
                </mxCell>
                <mxCell id="33" value="" style="html=1;points=[];perimeter=orthogonalPerimeter;" parent="29" vertex="1">
                    <mxGeometry x="45" y="140" width="10" height="130" as="geometry"/>
                </mxCell>
                <mxCell id="40" value="" style="html=1;points=[];perimeter=orthogonalPerimeter;" parent="29" vertex="1">
                    <mxGeometry x="50" y="172" width="10" height="40" as="geometry"/>
                </mxCell>
                <mxCell id="41" value="Поиск &lt;br&gt;открытого&lt;br&gt;диалога" style="edgeStyle=orthogonalEdgeStyle;html=1;align=left;spacingLeft=2;endArrow=block;rounded=0;entryX=1;entryY=0;" parent="29" target="40" edge="1">
                    <mxGeometry relative="1" as="geometry">
                        <mxPoint x="55" y="152" as="sourcePoint"/>
                        <Array as="points">
                            <mxPoint x="85" y="152"/>
                        </Array>
                    </mxGeometry>
                </mxCell>
                <mxCell id="30" value="Service AI" style="shape=umlLifeline;perimeter=lifelinePerimeter;whiteSpace=wrap;html=1;container=1;collapsible=0;recursiveResize=0;outlineConnect=0;" parent="1" vertex="1">
                    <mxGeometry x="760" y="80" width="100" height="510" as="geometry"/>
                </mxCell>
                <mxCell id="49" value="" style="html=1;points=[];perimeter=orthogonalPerimeter;" vertex="1" parent="30">
                    <mxGeometry x="45" y="220" width="10" height="40" as="geometry"/>
                </mxCell>
                <mxCell id="35" value="Маршрутизация&lt;br&gt;запроса" style="html=1;verticalAlign=bottom;endArrow=block;entryX=-0.028;entryY=-0.002;entryDx=0;entryDy=0;entryPerimeter=0;" parent="1" source="31" edge="1" target="32">
                    <mxGeometry width="80" relative="1" as="geometry">
                        <mxPoint x="210" y="180" as="sourcePoint"/>
                        <mxPoint x="360" y="180" as="targetPoint"/>
                        <mxPoint as="offset"/>
                    </mxGeometry>
                </mxCell>
                <mxCell id="36" value="Запрос в диалог ИИ" style="html=1;verticalAlign=bottom;endArrow=blockThin;entryX=-0.045;entryY=-0.002;entryDx=0;entryDy=0;entryPerimeter=0;endFill=1;" parent="1" source="32" target="38" edge="1">
                    <mxGeometry x="0.0029" width="80" relative="1" as="geometry">
                        <mxPoint x="400" y="190" as="sourcePoint"/>
                        <mxPoint x="570.45" y="190" as="targetPoint"/>
                        <mxPoint as="offset"/>
                    </mxGeometry>
                </mxCell>
                <mxCell id="37" value="API Gateway" style="shape=umlLifeline;perimeter=lifelinePerimeter;whiteSpace=wrap;html=1;container=1;collapsible=0;recursiveResize=0;outlineConnect=0;" parent="1" vertex="1">
                    <mxGeometry x="380" y="80" width="100" height="510" as="geometry"/>
                </mxCell>
                <mxCell id="38" value="" style="html=1;points=[];perimeter=orthogonalPerimeter;" parent="37" vertex="1">
                    <mxGeometry x="45" y="110" width="10" height="280" as="geometry"/>
                </mxCell>
                <mxCell id="57" value="" style="html=1;verticalAlign=bottom;endArrow=blockThin;endFill=1;entryX=0;entryY=0.561;entryDx=0;entryDy=0;entryPerimeter=0;" edge="1" parent="37">
                    <mxGeometry x="0.007" width="80" relative="1" as="geometry">
                        <mxPoint x="54.999999999999886" y="300" as="sourcePoint"/>
                        <mxPoint x="164.9999999999999" y="300" as="targetPoint"/>
                        <mxPoint as="offset"/>
                    </mxGeometry>
                </mxCell>
                <mxCell id="60" value="Ответ" style="html=1;verticalAlign=bottom;endArrow=open;dashed=1;endSize=8;exitX=-0.108;exitY=0.981;exitDx=0;exitDy=0;exitPerimeter=0;" edge="1" parent="37">
                    <mxGeometry relative="1" as="geometry">
                        <mxPoint x="60" y="380" as="targetPoint"/>
                        <mxPoint x="164.46000000000004" y="380" as="sourcePoint"/>
                    </mxGeometry>
                </mxCell>
                <mxCell id="39" value="Маршрутизация запроса" style="html=1;verticalAlign=bottom;endArrow=block;entryX=0.078;entryY=-0.002;entryDx=0;entryDy=0;entryPerimeter=0;" parent="1" source="38" target="33" edge="1">
                    <mxGeometry x="-0.0049" width="80" relative="1" as="geometry">
                        <mxPoint x="590" y="220" as="sourcePoint"/>
                        <mxPoint x="690" y="220" as="targetPoint"/>
                        <mxPoint as="offset"/>
                    </mxGeometry>
                </mxCell>
                <mxCell id="42" value="Ответ" style="html=1;verticalAlign=bottom;endArrow=open;dashed=1;endSize=8;exitX=-0.108;exitY=0.981;exitDx=0;exitDy=0;exitPerimeter=0;" parent="1" source="33" target="38" edge="1">
                    <mxGeometry relative="1" as="geometry">
                        <mxPoint x="560" y="310" as="targetPoint"/>
                        <mxPoint x="694.5" y="310" as="sourcePoint"/>
                    </mxGeometry>
                </mxCell>
                <mxCell id="45" value="Список предложений &lt;br&gt;для Арины&amp;nbsp;" style="html=1;verticalAlign=bottom;endArrow=open;dashed=1;endSize=8;exitX=0.026;exitY=1.001;exitDx=0;exitDy=0;exitPerimeter=0;" parent="1" source="31" target="5" edge="1">
                    <mxGeometry relative="1" as="geometry">
                        <mxPoint x="80" y="340" as="targetPoint"/>
                        <mxPoint x="170" y="340" as="sourcePoint"/>
                    </mxGeometry>
                </mxCell>
                <mxCell id="44" value="Ответ" style="html=1;verticalAlign=bottom;endArrow=open;dashed=1;endSize=8;exitX=0.191;exitY=1.003;exitDx=0;exitDy=0;exitPerimeter=0;" parent="1" source="32" target="31" edge="1">
                    <mxGeometry relative="1" as="geometry">
                        <mxPoint x="220" y="330" as="targetPoint"/>
                        <mxPoint x="359" y="330.00000000000006" as="sourcePoint"/>
                    </mxGeometry>
                </mxCell>
                <mxCell id="50" value="Подборка вариантов" style="html=1;verticalAlign=bottom;endArrow=open;dashed=1;endSize=8;exitX=0.139;exitY=0.981;exitDx=0;exitDy=0;exitPerimeter=0;" edge="1" parent="1" source="49" target="33">
                    <mxGeometry relative="1" as="geometry">
                        <mxPoint x="710" y="330" as="targetPoint"/>
                        <mxPoint x="880" y="330" as="sourcePoint"/>
                    </mxGeometry>
                </mxCell>
                <mxCell id="51" value="Catalog" style="shape=umlLifeline;perimeter=lifelinePerimeter;whiteSpace=wrap;html=1;container=1;collapsible=0;recursiveResize=0;outlineConnect=0;" vertex="1" parent="1">
                    <mxGeometry x="500" y="80" width="100" height="510" as="geometry"/>
                </mxCell>
                <mxCell id="55" value="" style="html=1;points=[];perimeter=orthogonalPerimeter;" vertex="1" parent="51">
                    <mxGeometry x="45" y="300" width="10" height="90" as="geometry"/>
                </mxCell>
                <mxCell id="58" value="" style="html=1;points=[];perimeter=orthogonalPerimeter;" vertex="1" parent="51">
                    <mxGeometry x="50" y="330" width="10" height="40" as="geometry"/>
                </mxCell>
                <mxCell id="59" value="Подготовка&lt;br&gt;данных&lt;br&gt;предложения" style="edgeStyle=orthogonalEdgeStyle;html=1;align=left;spacingLeft=2;endArrow=block;rounded=0;entryX=1;entryY=0;" edge="1" target="58" parent="51">
                    <mxGeometry relative="1" as="geometry">
                        <mxPoint x="55" y="310" as="sourcePoint"/>
                        <Array as="points">
                            <mxPoint x="85" y="310"/>
                        </Array>
                    </mxGeometry>
                </mxCell>
                <mxCell id="48" value="Запрос на подбор" style="html=1;verticalAlign=bottom;endArrow=block;" edge="1" parent="1" source="33" target="49">
                    <mxGeometry x="-0.0049" width="80" relative="1" as="geometry">
                        <mxPoint x="700" y="305" as="sourcePoint"/>
                        <mxPoint x="779" y="305" as="targetPoint"/>
                        <mxPoint as="offset"/>
                    </mxGeometry>
                </mxCell>
                <mxCell id="56" value="Получение данных&lt;br&gt;предложений" style="html=1;verticalAlign=bottom;endArrow=blockThin;endFill=1;entryX=0.076;entryY=0.632;entryDx=0;entryDy=0;entryPerimeter=0;" edge="1" parent="1" source="32" target="38">
                    <mxGeometry x="0.007" width="80" relative="1" as="geometry">
                        <mxPoint x="320" y="370" as="sourcePoint"/>
                        <mxPoint x="420" y="370" as="targetPoint"/>
                        <mxPoint as="offset"/>
                    </mxGeometry>
                </mxCell>
            </root>
        </mxGraphModel>
    </diagram>
</mxfile>